<svg width="300" height="105" viewBox="0 0 300 105" fill="none" xmlns="http://www.w3.org/2000/svg">
<rect width="300" height="105" fill="white"/>
<path d="M74.6087 14H23.7217C16.6957 14 11 19.7755 11 26.9V78.5C11 85.6245 16.6957 91.4 23.7217 91.4H74.6087C81.6347 91.4 87.3304 85.6245 87.3304 78.5V26.9C87.3304 19.7755 81.6347 14 74.6087 14Z" fill="#111827"/>
<path d="M74.6087 26.8999H23.7218C21.3798 26.8999 19.4812 28.8251 19.4812 31.1999C19.4812 33.5747 21.3798 35.4999 23.7218 35.4999H74.6087C76.9507 35.4999 78.8493 33.5747 78.8493 31.1999C78.8493 28.8251 76.9507 26.8999 74.6087 26.8999Z" fill="#3B82F6"/>
<path d="M61.887 44.1001H23.7218C21.3798 44.1001 19.4812 46.0253 19.4812 48.4001C19.4812 50.7749 21.3798 52.7001 23.7218 52.7001H61.887C64.229 52.7001 66.1276 50.7749 66.1276 48.4001C66.1276 46.0253 64.229 44.1001 61.887 44.1001Z" fill="#10B981"/>
<path d="M53.4058 61.3H23.7218C21.3798 61.3 19.4812 63.2252 19.4812 65.6C19.4812 67.9749 21.3798 69.9 23.7218 69.9H53.4058C55.7478 69.9 57.6464 67.9749 57.6464 65.6C57.6464 63.2252 55.7478 61.3 53.4058 61.3Z" fill="#8B5CF6"/>
<path d="M74.6086 75.2749C77.5361 75.2749 79.9093 72.8684 79.9093 69.8999C79.9093 66.9314 77.5361 64.5249 74.6086 64.5249C71.6811 64.5249 69.3079 66.9314 69.3079 69.8999C69.3079 72.8684 71.6811 75.2749 74.6086 75.2749Z" fill="#F59E0B"/>
<path d="M128.275 40.0181L123.928 66.2H119.147L110.518 49.7213H110.313L107.565 66.2H102.029L106.376 40.0181H111.234L119.825 56.484H120.042L122.765 40.0181H128.275ZM137.297 66.5835C135.294 66.5835 133.637 66.1573 132.324 65.3051C131.012 64.4443 130.087 63.2511 129.55 61.7255C129.022 60.1914 128.924 58.4059 129.256 56.369C129.58 54.3576 130.253 52.5977 131.276 51.0892C132.299 49.5806 133.598 48.4088 135.175 47.5735C136.752 46.7298 138.529 46.3079 140.506 46.3079C142.5 46.3079 144.154 46.7383 145.466 47.5991C146.779 48.4514 147.703 49.6446 148.24 51.1786C148.777 52.7127 148.88 54.4982 148.547 56.5352C148.215 58.538 147.533 60.2937 146.502 61.8022C145.471 63.3107 144.171 64.4869 142.603 65.3306C141.034 66.1659 139.266 66.5835 137.297 66.5835ZM137.834 62.3647C138.755 62.3647 139.569 62.1048 140.276 61.5849C140.992 61.0565 141.584 60.3406 142.053 59.4372C142.53 58.5252 142.863 57.494 143.05 56.3434C143.238 55.2099 143.25 54.2042 143.088 53.3264C142.926 52.44 142.586 51.7411 142.066 51.2298C141.554 50.7184 140.851 50.4627 139.956 50.4627C139.036 50.4627 138.218 50.7269 137.502 51.2553C136.786 51.7752 136.194 52.4911 135.725 53.4031C135.256 54.315 134.928 55.3505 134.74 56.5096C134.561 57.6346 134.549 58.6403 134.702 59.5267C134.855 60.4045 135.192 61.0991 135.712 61.6105C136.232 62.1133 136.939 62.3647 137.834 62.3647ZM150.478 66.2L153.75 46.5636H159.03L158.455 49.9897H158.659C159.222 48.771 159.976 47.8505 160.922 47.2284C161.877 46.5977 162.904 46.2823 164.003 46.2823C164.276 46.2823 164.561 46.2994 164.86 46.3335C165.167 46.359 165.439 46.4017 165.678 46.4613L164.86 51.3065C164.621 51.2213 164.28 51.1531 163.837 51.1019C163.402 51.0423 162.989 51.0125 162.597 51.0125C161.804 51.0125 161.067 51.1872 160.385 51.5366C159.703 51.8775 159.128 52.3548 158.659 52.9684C158.199 53.5821 157.897 54.2894 157.752 55.0906L155.924 66.2H150.478ZM165.246 66.2L168.519 46.5636H173.697L173.134 50.0281H173.352C173.948 48.8775 174.779 47.9698 175.844 47.3051C176.918 46.6403 178.124 46.3079 179.462 46.3079C180.792 46.3079 181.874 46.6446 182.709 47.3178C183.553 47.9826 184.039 48.886 184.167 50.0281H184.371C184.951 48.9031 185.825 48.0039 186.992 47.3306C188.16 46.6488 189.464 46.3079 190.904 46.3079C192.719 46.3079 194.109 46.8917 195.072 48.0593C196.035 49.2269 196.337 50.8718 195.979 52.994L193.781 66.2H188.334L190.38 54.0678C190.542 52.9684 190.38 52.1502 189.894 51.6133C189.408 51.0678 188.731 50.7951 187.861 50.7951C186.873 50.7951 186.05 51.1105 185.394 51.7411C184.738 52.3633 184.333 53.1857 184.18 54.2085L182.147 66.2H176.867L178.938 53.9528C179.083 52.9812 178.925 52.2142 178.465 51.6517C178.013 51.0806 177.336 50.7951 176.433 50.7951C175.836 50.7951 175.269 50.9485 174.732 51.2553C174.204 51.5536 173.756 51.9755 173.39 52.521C173.023 53.0579 172.785 53.6886 172.674 54.413L170.68 66.2H165.246ZM203.592 66.5707C202.348 66.5707 201.27 66.3534 200.358 65.9187C199.455 65.4755 198.79 64.8193 198.364 63.95C197.937 63.0806 197.831 62.0025 198.044 60.7156C198.232 59.6247 198.585 58.7127 199.105 57.9798C199.634 57.2383 200.277 56.6417 201.035 56.19C201.794 55.7383 202.634 55.3931 203.554 55.1545C204.483 54.9159 205.442 54.7539 206.43 54.6687C207.572 54.5494 208.501 54.4343 209.217 54.3235C209.942 54.2127 210.483 54.0551 210.841 53.8505C211.199 53.6375 211.416 53.3221 211.493 52.9045V52.8278C211.621 52.0267 211.472 51.4045 211.045 50.9613C210.628 50.5096 209.959 50.2838 209.038 50.2838C208.067 50.2838 207.24 50.4968 206.558 50.923C205.885 51.3491 205.403 51.8903 205.114 52.5465L200.153 52.1375C200.597 50.9443 201.266 49.913 202.16 49.0437C203.064 48.1659 204.151 47.4926 205.42 47.0238C206.69 46.5465 208.114 46.3079 209.69 46.3079C210.781 46.3079 211.8 46.4357 212.746 46.6914C213.7 46.9471 214.523 47.3434 215.213 47.8803C215.912 48.4173 216.415 49.1076 216.722 49.9514C217.037 50.7866 217.101 51.788 216.913 52.9556L214.702 66.2H209.537L209.997 63.4769H209.844C209.426 64.0906 208.915 64.6318 208.31 65.1005C207.705 65.5607 207.01 65.923 206.226 66.1872C205.442 66.4428 204.564 66.5707 203.592 66.5707ZM205.778 62.8122C206.571 62.8122 207.3 62.6545 207.964 62.3392C208.638 62.0153 209.192 61.5806 209.626 61.0352C210.07 60.4897 210.351 59.8718 210.47 59.1815L210.803 57.0977C210.632 57.2085 210.385 57.3065 210.061 57.3917C209.746 57.4769 209.401 57.5579 209.026 57.6346C208.659 57.7028 208.288 57.7667 207.913 57.8264C207.538 57.8775 207.202 57.9286 206.903 57.9798C206.247 58.0735 205.659 58.2227 205.139 58.4272C204.619 58.6318 204.197 58.9088 203.874 59.2582C203.55 59.5991 203.349 60.0252 203.273 60.5366C203.153 61.2781 203.328 61.8448 203.797 62.2369C204.274 62.6204 204.935 62.8122 205.778 62.8122ZM232.644 46.5636L231.967 50.6545H220.129L220.819 46.5636H232.644ZM224.271 41.859H229.717L226.674 60.1659C226.589 60.6687 226.602 61.0607 226.712 61.342C226.823 61.6147 227.006 61.8065 227.262 61.9173C227.526 62.0281 227.842 62.0835 228.208 62.0835C228.464 62.0835 228.724 62.0622 228.988 62.0196C229.252 61.9684 229.452 61.9301 229.589 61.9045L229.793 65.9571C229.486 66.0508 229.073 66.1531 228.553 66.2639C228.042 66.3747 227.437 66.4428 226.738 66.4684C225.408 66.5196 224.283 66.3448 223.363 65.9443C222.442 65.5352 221.782 64.9088 221.381 64.065C220.981 63.2213 220.896 62.1602 221.126 60.8818L224.271 41.859ZM232.919 66.2L236.192 46.5636H241.638L238.365 66.2H232.919ZM239.477 44.0068C238.668 44.0068 237.999 43.7383 237.47 43.2014C236.95 42.6559 236.737 42.0082 236.831 41.2582C236.925 40.4911 237.291 39.8434 237.93 39.315C238.57 38.7781 239.294 38.5096 240.104 38.5096C240.913 38.5096 241.574 38.7781 242.085 39.315C242.597 39.8434 242.81 40.4911 242.724 41.2582C242.639 42.0082 242.277 42.6559 241.638 43.2014C241.007 43.7383 240.287 44.0068 239.477 44.0068ZM251.549 66.5835C249.529 66.5835 247.867 66.1573 246.563 65.3051C245.267 64.4443 244.36 63.2511 243.84 61.7255C243.328 60.2 243.239 58.4443 243.571 56.4585C243.895 54.4471 244.573 52.6829 245.604 51.1659C246.635 49.6403 247.944 48.4514 249.529 47.5991C251.122 46.7383 252.912 46.3079 254.898 46.3079C256.611 46.3079 258.06 46.619 259.245 47.2411C260.429 47.8633 261.299 48.7369 261.853 49.8619C262.407 50.9869 262.594 52.3079 262.415 53.825H257.289C257.297 52.8534 257.046 52.065 256.534 51.4599C256.023 50.8548 255.273 50.5522 254.284 50.5522C253.432 50.5522 252.648 50.7823 251.932 51.2426C251.225 51.6943 250.624 52.3548 250.13 53.2241C249.644 54.0934 249.303 55.146 249.107 56.3818C248.902 57.6346 248.898 58.7 249.094 59.5778C249.29 60.4556 249.665 61.1247 250.219 61.5849C250.773 62.0451 251.472 62.2752 252.316 62.2752C252.946 62.2752 253.53 62.1474 254.067 61.8917C254.613 61.636 255.09 61.2653 255.499 60.7795C255.908 60.2852 256.223 59.6928 256.445 59.0025H261.584C261.235 60.511 260.6 61.8321 259.679 62.9656C258.767 64.0991 257.621 64.9855 256.24 65.6247C254.86 66.2639 253.296 66.5835 251.549 66.5835Z" fill="#111827"/>
</svg>
