<svg width="311" height="99" viewBox="0 0 311 99" fill="none" xmlns="http://www.w3.org/2000/svg">
<path d="M80.9565 0H16.1913C7.24909 0 0 7.3873 0 16.5V82.5C0 91.6127 7.24909 99 16.1913 99H80.9565C89.8987 99 97.1478 91.6127 97.1478 82.5V16.5C97.1478 7.3873 89.8987 0 80.9565 0Z" fill="#111827"/>
<path d="M80.9565 16.5H16.1913C13.2106 16.5 10.7942 18.9624 10.7942 22C10.7942 25.0376 13.2106 27.5 16.1913 27.5H80.9565C83.9372 27.5 86.3536 25.0376 86.3536 22C86.3536 18.9624 83.9372 16.5 80.9565 16.5Z" fill="#3B82F6"/>
<path d="M64.7652 38.5H16.1913C13.2106 38.5 10.7942 40.9624 10.7942 44C10.7942 47.0376 13.2106 49.5 16.1913 49.5H64.7652C67.7459 49.5 70.1623 47.0376 70.1623 44C70.1623 40.9624 67.7459 38.5 64.7652 38.5Z" fill="#10B981"/>
<path d="M53.971 60.5H16.1913C13.2106 60.5 10.7942 62.9624 10.7942 66C10.7942 69.0376 13.2106 71.5 16.1913 71.5H53.971C56.9517 71.5 59.3681 69.0376 59.3681 66C59.3681 62.9624 56.9517 60.5 53.971 60.5Z" fill="#8B5CF6"/>
<path d="M80.9566 78.375C84.6825 78.375 87.703 75.297 87.703 71.5C87.703 67.703 84.6825 64.625 80.9566 64.625C77.2307 64.625 74.2102 67.703 74.2102 71.5C74.2102 75.297 77.2307 78.375 80.9566 78.375Z" fill="#F59E0B"/>
<path d="M154.836 36.8182L150.489 63H145.708L137.079 46.5213H136.874L134.125 63H128.59L132.936 36.8182H137.794L146.385 53.2841H146.603L149.326 36.8182H154.836ZM163.858 63.3835C161.855 63.3835 160.197 62.9574 158.885 62.1051C157.572 61.2443 156.648 60.0511 156.111 58.5256C155.582 56.9915 155.484 55.206 155.817 53.169C156.141 51.1577 156.814 49.3977 157.837 47.8892C158.859 46.3807 160.159 45.2088 161.736 44.3736C163.313 43.5298 165.09 43.108 167.067 43.108C169.061 43.108 170.715 43.5384 172.027 44.3991C173.34 45.2514 174.264 46.4446 174.801 47.9787C175.338 49.5128 175.44 51.2983 175.108 53.3352C174.776 55.3381 174.094 57.0938 173.063 58.6023C172.031 60.1108 170.732 61.2869 169.163 62.1307C167.595 62.9659 165.827 63.3835 163.858 63.3835ZM164.395 59.1648C165.315 59.1648 166.129 58.9048 166.837 58.3849C167.553 57.8565 168.145 57.1406 168.614 56.2372C169.091 55.3253 169.423 54.294 169.611 53.1435C169.798 52.0099 169.811 51.0043 169.649 50.1264C169.487 49.2401 169.146 48.5412 168.626 48.0298C168.115 47.5185 167.412 47.2628 166.517 47.2628C165.597 47.2628 164.778 47.527 164.063 48.0554C163.347 48.5753 162.754 49.2912 162.286 50.2031C161.817 51.1151 161.489 52.1506 161.301 53.3097C161.122 54.4347 161.109 55.4403 161.263 56.3267C161.416 57.2045 161.753 57.8991 162.273 58.4105C162.793 58.9134 163.5 59.1648 164.395 59.1648ZM177.038 63L180.311 43.3636H185.591L185.016 46.7898H185.22C185.783 45.571 186.537 44.6506 187.483 44.0284C188.438 43.3977 189.465 43.0824 190.564 43.0824C190.837 43.0824 191.122 43.0994 191.42 43.1335C191.727 43.1591 192 43.2017 192.239 43.2614L191.42 48.1065C191.182 48.0213 190.841 47.9531 190.398 47.902C189.963 47.8423 189.55 47.8125 189.158 47.8125C188.365 47.8125 187.628 47.9872 186.946 48.3366C186.264 48.6776 185.689 49.1548 185.22 49.7685C184.76 50.3821 184.457 51.0895 184.313 51.8906L182.484 63H177.038ZM191.807 63L195.08 43.3636H200.258L199.695 46.8281H199.912C200.509 45.6776 201.34 44.7699 202.405 44.1051C203.479 43.4403 204.685 43.108 206.023 43.108C207.353 43.108 208.435 43.4446 209.27 44.1179C210.114 44.7827 210.6 45.6861 210.728 46.8281H210.932C211.512 45.7031 212.385 44.804 213.553 44.1307C214.721 43.4489 216.025 43.108 217.465 43.108C219.28 43.108 220.669 43.6918 221.633 44.8594C222.596 46.027 222.898 47.6719 222.54 49.794L220.341 63H214.895L216.941 50.8679C217.103 49.7685 216.941 48.9503 216.455 48.4134C215.969 47.8679 215.292 47.5952 214.422 47.5952C213.434 47.5952 212.611 47.9105 211.955 48.5412C211.299 49.1634 210.894 49.9858 210.74 51.0085L208.708 63H203.428L205.499 50.7528C205.644 49.7812 205.486 49.0142 205.026 48.4517C204.574 47.8807 203.897 47.5952 202.993 47.5952C202.397 47.5952 201.83 47.7486 201.293 48.0554C200.765 48.3537 200.317 48.7756 199.951 49.321C199.584 49.858 199.346 50.4886 199.235 51.2131L197.24 63H191.807ZM230.153 63.3707C228.909 63.3707 227.831 63.1534 226.919 62.7188C226.015 62.2756 225.351 61.6193 224.924 60.75C224.498 59.8807 224.392 58.8026 224.605 57.5156C224.792 56.4247 225.146 55.5128 225.666 54.7798C226.194 54.0384 226.838 53.4418 227.596 52.9901C228.355 52.5384 229.194 52.1932 230.115 51.9545C231.044 51.7159 232.003 51.554 232.991 51.4688C234.133 51.3494 235.062 51.2344 235.778 51.1236C236.503 51.0128 237.044 50.8551 237.402 50.6506C237.76 50.4375 237.977 50.1222 238.054 49.7045V49.6278C238.182 48.8267 238.032 48.2045 237.606 47.7614C237.189 47.3097 236.52 47.0838 235.599 47.0838C234.628 47.0838 233.801 47.2969 233.119 47.723C232.446 48.1491 231.964 48.6903 231.674 49.3466L226.714 48.9375C227.157 47.7443 227.826 46.7131 228.721 45.8438C229.625 44.9659 230.711 44.2926 231.981 43.8239C233.251 43.3466 234.674 43.108 236.251 43.108C237.342 43.108 238.36 43.2358 239.307 43.4915C240.261 43.7472 241.083 44.1435 241.774 44.6804C242.473 45.2173 242.976 45.9077 243.282 46.7514C243.598 47.5866 243.662 48.5881 243.474 49.7557L241.262 63H236.098L236.558 60.277H236.405C235.987 60.8906 235.476 61.4318 234.87 61.9006C234.265 62.3608 233.571 62.723 232.787 62.9872C232.003 63.2429 231.125 63.3707 230.153 63.3707ZM232.339 59.6122C233.132 59.6122 233.86 59.4545 234.525 59.1392C235.199 58.8153 235.753 58.3807 236.187 57.8352C236.63 57.2898 236.912 56.6719 237.031 55.9815L237.363 53.8977C237.193 54.0085 236.946 54.1065 236.622 54.1918C236.307 54.277 235.961 54.358 235.586 54.4347C235.22 54.5028 234.849 54.5668 234.474 54.6264C234.099 54.6776 233.762 54.7287 233.464 54.7798C232.808 54.8736 232.22 55.0227 231.7 55.2273C231.18 55.4318 230.758 55.7088 230.434 56.0582C230.11 56.3991 229.91 56.8253 229.833 57.3366C229.714 58.0781 229.889 58.6449 230.358 59.0369C230.835 59.4205 231.495 59.6122 232.339 59.6122ZM259.205 43.3636L258.527 47.4545H246.689L247.38 43.3636H259.205ZM250.831 38.6591H256.277L253.235 56.9659C253.15 57.4687 253.162 57.8608 253.273 58.142C253.384 58.4148 253.567 58.6065 253.823 58.7173C254.087 58.8281 254.402 58.8835 254.769 58.8835C255.025 58.8835 255.284 58.8622 255.549 58.8196C255.813 58.7685 256.013 58.7301 256.15 58.7045L256.354 62.7571C256.047 62.8509 255.634 62.9531 255.114 63.0639C254.603 63.1747 253.998 63.2429 253.299 63.2685C251.969 63.3196 250.844 63.1449 249.924 62.7443C249.003 62.3352 248.343 61.7088 247.942 60.8651C247.542 60.0213 247.456 58.9602 247.686 57.6818L250.831 38.6591ZM259.48 63L262.753 43.3636H268.199L264.926 63H259.48ZM266.038 40.8068C265.228 40.8068 264.559 40.5384 264.031 40.0014C263.511 39.456 263.298 38.8082 263.392 38.0582C263.485 37.2912 263.852 36.6435 264.491 36.1151C265.13 35.5781 265.855 35.3097 266.664 35.3097C267.474 35.3097 268.135 35.5781 268.646 36.1151C269.157 36.6435 269.37 37.2912 269.285 38.0582C269.2 38.8082 268.838 39.456 268.199 40.0014C267.568 40.5384 266.848 40.8068 266.038 40.8068ZM278.109 63.3835C276.09 63.3835 274.428 62.9574 273.124 62.1051C271.828 61.2443 270.92 60.0511 270.401 58.5256C269.889 57 269.8 55.2443 270.132 53.2585C270.456 51.2472 271.134 49.483 272.165 47.9659C273.196 46.4403 274.504 45.2514 276.09 44.3991C277.683 43.5384 279.473 43.108 281.459 43.108C283.172 43.108 284.621 43.419 285.805 44.0412C286.99 44.6634 287.859 45.5369 288.413 46.6619C288.967 47.7869 289.155 49.108 288.976 50.625H283.849C283.858 49.6534 283.607 48.8651 283.095 48.2599C282.584 47.6548 281.834 47.3523 280.845 47.3523C279.993 47.3523 279.209 47.5824 278.493 48.0426C277.786 48.4943 277.185 49.1548 276.69 50.0241C276.205 50.8935 275.864 51.946 275.668 53.1818C275.463 54.4347 275.459 55.5 275.655 56.3778C275.851 57.2557 276.226 57.9247 276.78 58.3849C277.334 58.8452 278.033 59.0753 278.876 59.0753C279.507 59.0753 280.091 58.9474 280.628 58.6918C281.173 58.4361 281.651 58.0653 282.06 57.5795C282.469 57.0852 282.784 56.4929 283.006 55.8026H288.145C287.795 57.3111 287.161 58.6321 286.24 59.7656C285.328 60.8991 284.182 61.7855 282.801 62.4247C281.42 63.0639 279.857 63.3835 278.109 63.3835Z" fill="white"/>
</svg>
